<svg width="18" height="18" viewBox="0 0 18 18" fill="none" xmlns="http://www.w3.org/2000/svg">
<path d="M6.3 12.15H11.925C12.615 12.15 13.2 11.9064 13.68 11.4192C14.16 10.932 14.4 10.3506 14.4 9.675C14.4 8.9994 14.1711 8.4258 13.7133 7.9542C13.2555 7.4826 12.6894 7.2312 12.015 7.2C11.82 6.525 11.445 5.9814 10.89 5.5692C10.335 5.157 9.705 4.9506 9 4.95C8.385 4.95 7.8225 5.1114 7.3125 5.4342C6.8025 5.757 6.42 6.2031 6.165 6.7725C5.445 6.8025 4.8375 7.0764 4.3425 7.5942C3.8475 8.112 3.6 8.7306 3.6 9.45C3.6 10.2 3.8625 10.8375 4.3875 11.3625C4.9125 11.8875 5.55 12.15 6.3 12.15ZM6.3 10.35C6.045 10.35 5.8314 10.2636 5.6592 10.0908C5.487 9.918 5.4006 9.7044 5.4 9.45C5.3994 9.1956 5.4819 8.9856 5.6475 8.82C5.8131 8.6544 6.0156 8.5644 6.255 8.55H7.335L7.785 7.5375C7.905 7.2825 8.0739 7.0875 8.2917 6.9525C8.5095 6.8175 8.7456 6.75 9 6.75C9.3 6.75 9.57 6.8364 9.81 7.0092C10.05 7.182 10.2075 7.4181 10.2825 7.7175L10.6425 9H11.9475C12.1425 9 12.3 9.0639 12.42 9.1917C12.54 9.3195 12.6 9.4806 12.6 9.675C12.6 9.855 12.5364 10.0125 12.4092 10.1475C12.282 10.2825 12.1206 10.35 11.925 10.35H6.3ZM9 18C7.755 18 6.585 17.7636 5.49 17.2908C4.395 16.818 3.4425 16.1769 2.6325 15.3675C1.8225 14.5581 1.1814 13.6056 0.709201 12.51C0.237001 11.4144 0.000601139 10.2444 1.13924e-06 9C-0.000598861 7.7556 0.235801 6.5856 0.709201 5.49C1.1826 4.3944 1.8237 3.4419 2.6325 2.6325C3.4413 1.8231 4.3938 1.182 5.49 0.7092C6.5862 0.2364 7.7562 0 9 0C10.2438 0 11.4138 0.2364 12.51 0.7092C13.6062 1.182 14.5587 1.8231 15.3675 2.6325C16.1763 3.4419 16.8177 4.3944 17.2917 5.49C17.7657 6.5856 18.0018 7.7556 18 9C17.9982 10.2444 17.7618 11.4144 17.2908 12.51C16.8198 13.6056 16.1787 14.5581 15.3675 15.3675C14.5563 16.1769 13.6038 16.8183 12.51 17.2917C11.4162 17.7651 10.2462 18.0012 9 18Z" fill="url(#paint0_linear_0_33)"/>
<defs>
<linearGradient id="paint0_linear_0_33" x1="9.01445" y1="4.89706" x2="8.86153" y2="17.9982" gradientUnits="userSpaceOnUse">
<stop stop-color="#FF1A35"/>
<stop offset="1" stop-color="#A01F2E"/>
</linearGradient>
</defs>
</svg>
