<svg width="24" height="18" viewBox="0 0 24 18" fill="none" xmlns="http://www.w3.org/2000/svg"><path d="M19.984 1.49591C18.4881 0.798593 16.8685 0.292475 15.1815 5.17344e-05C15.1667 -0.00042132 15.152 0.00235455 15.1384 0.00818421C15.1247 0.0140139 15.1126 0.0227558 15.1027 0.0337931C14.9003 0.404946 14.6641 0.888569 14.5066 1.25972C12.7172 0.989793 10.8975 0.989793 9.10805 1.25972C8.95059 0.877322 8.7144 0.404946 8.50071 0.0337931C8.48946 0.011299 8.45572 5.17344e-05 8.42198 5.17344e-05C6.73492 0.292475 5.12659 0.798593 3.61949 1.49591C3.60824 1.49591 3.59699 1.50716 3.58575 1.5184C0.526547 6.09596 -0.316982 10.5498 0.0991587 14.9586C0.0991587 14.9811 0.110406 15.0036 0.1329 15.0149C2.15737 16.4995 4.10311 17.3992 6.02636 17.9953C6.0601 18.0066 6.09384 17.9953 6.10509 17.9728C6.55497 17.3543 6.95986 16.7019 7.30852 16.0159C7.33102 15.9709 7.30852 15.9259 7.26353 15.9146C6.62245 15.6672 6.01511 15.3748 5.41902 15.0374C5.37403 15.0149 5.37403 14.9474 5.40777 14.9136C5.53149 14.8237 5.6552 14.7224 5.77892 14.6325C5.80142 14.61 5.83516 14.61 5.85765 14.6212C9.72664 16.387 13.8993 16.387 17.7233 14.6212C17.7458 14.61 17.7795 14.61 17.802 14.6325C17.9257 14.7337 18.0495 14.8237 18.1732 14.9249C18.2182 14.9586 18.2182 15.0261 18.1619 15.0486C17.5771 15.3973 16.9585 15.6784 16.3174 15.9259C16.2724 15.9371 16.2612 15.9934 16.2724 16.0271C16.6323 16.7132 17.0372 17.3655 17.4759 17.9841C17.5096 17.9953 17.5433 18.0066 17.5771 17.9953C19.5116 17.3992 21.4573 16.4995 23.4818 15.0149C23.5043 15.0036 23.5155 14.9811 23.5155 14.9586C24.0104 9.86372 22.6945 5.44363 20.0289 1.5184C20.0177 1.50716 20.0064 1.49591 19.984 1.49591ZM7.89337 12.2706C6.73492 12.2706 5.76767 11.2021 5.76767 9.88621C5.76767 8.57031 6.71243 7.50184 7.89337 7.50184C9.08556 7.50184 10.0303 8.58155 10.0191 9.88621C10.0191 11.2021 9.07431 12.2706 7.89337 12.2706ZM15.7326 12.2706C14.5741 12.2706 13.6069 11.2021 13.6069 9.88621C13.6069 8.57031 14.5516 7.50184 15.7326 7.50184C16.9248 7.50184 17.8695 8.58155 17.8583 9.88621C17.8583 11.2021 16.9248 12.2706 15.7326 12.2706Z" fill="#525560"/></svg>
