<svg width="12" height="18" viewBox="0 0 12 18" fill="none" xmlns="http://www.w3.org/2000/svg">
<path d="M0 0C0 2.31429 1.33714 4.42286 3.42857 5.41714V18H5.14286V12H6.85714V18H8.57143V5.40857C10.6629 4.42286 12 2.31429 12 0H10.2857C10.2857 1.13664 9.83418 2.22673 9.03046 3.03046C8.63249 3.42842 8.16004 3.74411 7.64007 3.95948C7.1201 4.17486 6.56281 4.28571 6 4.28571C4.86336 4.28571 3.77327 3.83419 2.96954 3.03046C2.16581 2.22673 1.71429 1.13664 1.71429 0M6 0C5.04857 0 4.28571 0.762857 4.28571 1.71429C4.28571 2.66571 5.04857 3.42857 6 3.42857C6.95143 3.42857 7.71429 2.66571 7.71429 1.71429C7.71429 0.762857 6.95143 0 6 0Z" fill="#525560"/>
</svg>
