<svg width="20" height="19" viewBox="0 0 20 19" fill="none" xmlns="http://www.w3.org/2000/svg">
<path d="M9.97214 3.83333L16.111 7.37499V14.4583L9.97214 18L3.83325 14.4583V7.37499L9.97214 3.83333Z" stroke="url(#paint0_linear_0_125)" stroke-width="2" stroke-linejoin="round"/>
<path d="M9.97222 1V3.68421M3.69167 7.26316L9.97222 10.8421M9.97222 10.8421L16.2528 7.26316M9.97222 10.8421V18M16.2528 14.4211L18.9444 15.7632M1 15.7632L3.69167 14.4211" stroke="url(#paint1_linear_0_125)" stroke-width="2" stroke-linecap="round" stroke-linejoin="round"/>
<path d="M13.0416 5.72221L16.111 7.47618V10.9841M6.9027 5.72221L3.83325 7.47618V10.9841M6.9027 16.246L9.97214 18L13.0416 16.246" stroke="url(#paint2_linear_0_125)" stroke-width="2" stroke-linejoin="round"/>
<defs>
<linearGradient id="paint0_linear_0_125" x1="9.98199" y1="7.68749" x2="9.84313" y2="17.9981" gradientUnits="userSpaceOnUse">
<stop stop-color="#FF1A35"/>
<stop offset="1" stop-color="#A01F2E"/>
</linearGradient>
<linearGradient id="paint1_linear_0_125" x1="9.98662" y1="5.625" x2="9.8498" y2="17.9985" gradientUnits="userSpaceOnUse">
<stop stop-color="#FF1A35"/>
<stop offset="1" stop-color="#A01F2E"/>
</linearGradient>
<linearGradient id="paint2_linear_0_125" x1="9.98199" y1="9.06249" x2="9.87769" y2="17.9988" gradientUnits="userSpaceOnUse">
<stop stop-color="#FF1A35"/>
<stop offset="1" stop-color="#A01F2E"/>
</linearGradient>
</defs>
</svg>
