<svg width="18" height="14" viewBox="0 0 18 14" fill="none" xmlns="http://www.w3.org/2000/svg">
<path d="M3.11111 14C2.89074 14 2.70615 13.9253 2.55733 13.776C2.40852 13.6267 2.33385 13.4421 2.33333 13.2222V12.4444C1.68518 12.4444 1.13426 12.2176 0.680555 11.7639C0.226852 11.3102 0 10.7593 0 10.1111V6.22222C0 5.79444 0.152444 5.42837 0.457333 5.124C0.762222 4.81963 1.1283 4.66718 1.55556 4.66667C1.98281 4.66615 2.34915 4.81859 2.65455 5.124C2.95996 5.42941 3.11215 5.79548 3.11111 6.22222V9.33333H14V6.22222C14 5.79444 14.1524 5.42837 14.4573 5.124C14.7622 4.81963 15.1283 4.66718 15.5556 4.66667C15.9828 4.66615 16.3491 4.81859 16.6546 5.124C16.96 5.42941 17.1121 5.79548 17.1111 6.22222V10.1111C17.1111 10.7593 16.8843 11.3102 16.4306 11.7639C15.9768 12.2176 15.4259 12.4444 14.7778 12.4444V13.2222C14.7778 13.4426 14.7031 13.6274 14.5538 13.7768C14.4044 13.9261 14.2198 14.0005 14 14C13.7801 13.9995 13.5956 13.9248 13.4462 13.776C13.2969 13.6272 13.2222 13.4426 13.2222 13.2222V12.4444H3.88889V13.2222C3.88889 13.4426 3.81422 13.6274 3.66489 13.7768C3.51555 13.9261 3.33096 14.0005 3.11111 14ZM4.66667 7.77778V6.22222C4.66667 5.50926 4.44967 4.8707 4.01567 4.30655C3.58167 3.74241 3.02089 3.34393 2.33333 3.11111V2.33333C2.33333 1.68518 2.56018 1.13426 3.01389 0.680555C3.46759 0.226852 4.01852 0 4.66667 0H12.4444C13.0926 0 13.6435 0.226852 14.0972 0.680555C14.5509 1.13426 14.7778 1.68518 14.7778 2.33333V3.11111C14.0778 3.29259 13.5139 3.67189 13.0861 4.249C12.6583 4.82611 12.4444 5.48385 12.4444 6.22222V7.77778H4.66667Z" fill="url(#paint0_linear_0_293)"/>
<defs>
<linearGradient id="paint0_linear_0_293" x1="8.56929" y1="3.80882" x2="8.47197" y2="13.9991" gradientUnits="userSpaceOnUse">
<stop stop-color="#FF1A35"/>
<stop offset="1" stop-color="#A01F2E"/>
</linearGradient>
</defs>
</svg>
