<svg width="18" height="18" viewBox="0 0 18 18" fill="none" xmlns="http://www.w3.org/2000/svg">
<path d="M2.0268 7.2C1.87574 7.78806 1.79954 8.39285 1.8 9C1.8 9.621 1.8792 10.224 2.0268 10.8H4.59C4.46866 9.60307 4.46866 8.39693 4.59 7.2H2.0268ZM2.763 5.4H4.8744C5.1138 4.3047 5.4594 3.3237 5.8833 2.5074C4.57666 3.13688 3.48949 4.14471 2.763 5.4ZM15.9732 7.2H13.41C13.5313 8.39693 13.5313 9.60307 13.41 10.8H15.9732C16.2762 9.61913 16.2762 8.38087 15.9732 7.2ZM15.237 5.4C14.5105 4.14471 13.4233 3.13688 12.1167 2.5074C12.5415 3.3237 12.8862 4.3047 13.1256 5.4H15.237ZM6.4008 7.2C6.33337 7.79763 6.29972 8.39858 6.3 9C6.3 9.6165 6.3342 10.2195 6.4008 10.8H11.5992C11.7347 9.60383 11.7347 8.39617 11.5992 7.2H6.4008ZM6.723 5.4H11.277C11.1132 4.72347 10.8769 4.06657 10.5723 3.4407C10.0071 2.3112 9.4023 1.8 9 1.8C8.5968 1.8 7.9929 2.3112 7.4277 3.4407C7.1442 4.0095 6.9057 4.671 6.723 5.4ZM2.763 12.6C3.48949 13.8553 4.57666 14.8631 5.8833 15.4926C5.4585 14.6763 5.1138 13.6953 4.8744 12.6H2.763ZM15.237 12.6H13.1256C12.8862 13.6953 12.5406 14.6763 12.1167 15.4926C13.4233 14.8631 14.5105 13.8553 15.237 12.6ZM6.723 12.6C6.9057 13.329 7.1442 13.9905 7.4277 14.5593C7.9929 15.6888 8.5977 16.2 9 16.2C9.4032 16.2 10.0071 15.6888 10.5723 14.5593C10.8558 13.9905 11.0943 13.329 11.277 12.6H6.723ZM9 18C4.0293 18 0 13.9707 0 9C0 4.0293 4.0293 0 9 0C13.9707 0 18 4.0293 18 9C18 13.9707 13.9707 18 9 18Z" fill="url(#paint0_linear_0_217)"/>
<defs>
<linearGradient id="paint0_linear_0_217" x1="9.01445" y1="4.89706" x2="8.86153" y2="17.9982" gradientUnits="userSpaceOnUse">
<stop stop-color="#FF1A35"/>
<stop offset="1" stop-color="#A01F2E"/>
</linearGradient>
</defs>
</svg>
